<svg xmlns="http://www.w3.org/2000/svg" viewBox="0 0 128 128" fill="none">
  <path d="M13 25c17-5 34-2 51 10v73c-17-12-34-15-51-10V25Z" fill="#E6F3FA" stroke="#1E5A82" stroke-width="5" stroke-linejoin="round"/>
  <path d="M115 25c-17-5-34-2-51 10v73c17-12 34-15 51-10V25Z" fill="#fff" stroke="#1E5A82" stroke-width="5" stroke-linejoin="round"/>
  <path d="M64 35v73" stroke="#1E5A82" stroke-width="5"/>
  <path d="M25 64h26l6 9v10H19V73l6-9Z" fill="#8FC7E5" stroke="#1E5A82" stroke-width="4" stroke-linejoin="round"/>
  <path d="m28 64 4-9h14l4 9M29 74h2M45 74h2M28 83v5M48 83v5" stroke="#1E5A82" stroke-width="3.5" stroke-linecap="round"/>
  <path d="m77 50 4 4 7-8M94 51h10M77 68l4 4 7-8M94 69h10M77 86l4 4 7-8M94 87h10" stroke="#61ADD5" stroke-width="4" stroke-linecap="round" stroke-linejoin="round"/>
</svg>
